<?xml version="1.0" encoding="utf-8"?><svg viewBox="0 0 51 42" xmlns="http://www.w3.org/2000/svg" xmlns:xlink="http://www.w3.org/1999/xlink"><style>:root>svg{display:none}:root>svg:target{display:block}</style><svg viewBox="0 0 24 24" id="copy" xmlns="http://www.w3.org/2000/svg"><path d="M21.375 22.5h-15a1.125 1.125 0 01-1.125-1.125V6A.75.75 0 016 5.25h15.375A1.125 1.125 0 0122.5 6.375v15a1.125 1.125 0 01-1.125 1.125z"/><path d="M5.25 3.75h13.5V2.625A1.125 1.125 0 0017.625 1.5H2.812A1.313 1.313 0 001.5 2.813v14.812a1.125 1.125 0 001.125 1.125H3.75V5.25a1.5 1.5 0 011.5-1.5z"/></svg><svg viewBox="0 0 51 42" id="logo" xmlns="http://www.w3.org/2000/svg"><path d="M0 21V0l33 42H17L0 21zm29.5 6L51 0v21l-6 6H29.5z"/></svg><svg viewBox="0 0 24 24" id="reset" xmlns="http://www.w3.org/2000/svg"><path d="M20.375 13.387V11.99c0-4.628-3.761-8.38-8.4-8.38a8.39 8.39 0 00-6.569 3.157M3.6 10.61v1.396c0 4.634 3.76 8.384 8.4 8.384a8.458 8.458 0 006.563-3.137"/><path d="M1.5 12l2.063-2.063L5.719 12M22.5 12l-2.063 2.063L18.282 12"/></svg></svg>